/* XPM */
static char * hand_xpm[] = {
"156 118 53 1",
" 	c #00FF00",
".	c #683828",
"+	c #74402C",
"@	c #805430",
"#	c #704834",
"$	c #AC8058",
"%	c #C09C70",
"&	c #B0885C",
"*	c #7C5438",
"=	c #8C5838",
"-	c #B88C64",
";	c #9C6C48",
">	c #683C1C",
",	c #5C3414",
"'	c #986440",
")	c #A0704C",
"!	c #885034",
"~	c #7C483C",
"{	c #845048",
"]	c #986C4C",
"^	c #844C30",
"/	c #8C6440",
"(	c #BC9468",
"_	c #B08868",
":	c #A87850",
"<	c #8C603C",
"[	c #A47C58",
"}	c #5C2C24",
"|	c #54281C",
"1	c #582C24",
"2	c #68342C",
"3	c #945C3C",
"4	c #4C2014",
"5	c #3C1C18",
"6	c #38140C",
"7	c #401810",
"8	c #381C18",
"9	c #200C0C",
"0	c #301414",
"a	c #140808",
"b	c #4C241C",
"c	c #301408",
"d	c #2C1414",
"e	c #482420",
"f	c #381804",
"g	c #744824",
"h	c #301000",
"i	c #101010",
"j	c #603C2C",
"k	c #543028",
"l	c #080808",
"m	c #704034",
"n	c #B49050",
"                                                                                                                      .+@++                                 ",
"                                                                                                                     .#$%&*+                                ",
"                                                                                                                    .=$--$;#+>>++,                          ",
"                                                                                                                   .');;)'!+#~{]~#+,                        ",
"                                                                                                                  .^'!!=^+../&((_$/#>                       ",
"                                                                                                                  +^!!=+.+!)----$&-]*..                     ",
"                                                                                                                 +^!!!+.^=;:$--$:::))<^+                    ",
"                                                                                                                +^^!!+.^==):$-$$::::::[/+>                  ",
"                                                                                                               }+^!!^.+===):$-$$$::$::::/!+>                ",
"                                                                                                              |.^^!^.+!===:$--$$$$::::$$::;^^+              ",
"                                                                                                             1}+^!!^+====)$----$$$:::$$:$:::;^^+            ",
"                                                                                                             }.^!!===='=')$----$$$:::$$::::$:'=!+           ",
"                                                                                                            ,2+^=='''''=':$---$$$$$::$$$:::$$:);*^,         ",
"                                                                                                           ,}+^==''''''''::$$$$::$$::$$:):::$$$:)'++>       ",
"                                                                                                          |}.^!=''3=3'''')::$$$::$$:::::)::$$--$:)'!+>      ",
"                                                                                                         |}.^!!'''=3'''''):::::::::)')''):$$$$$$$:)'!^+     ",
"                                                                                                        4|.+!!=''33'''')))::::::)))''''''::))::::$:)==^^    ",
"                                                                                                       4|}+!!=''''''''))):$$::::)))'==!!'))''))::::))'!^,   ",
"                                                                                                      51}+!!==''''''''))):$$$:::)'''=^++!''!'''))::))''^+   ",
"                                                                                                     6}.^!!==''33'''''):::$$$$::)''''2+.+#+}+^''')))))'++   ",
"                                                                                                    7|.+^!===''=''''')):):$-$$$$:'''!.}+++}}++!'''''''=++   ",
"                                                                                                   6|}++!!=='333''33))::):$---$$:''=+.}.^+}}+++=='''''++,   ",
"                                                                                                  64}++^!===3=3''3=')):::$$---$::)=^+2}..}8|}+++^++^^^++    ",
"                                                                                                  5}.++!==='3'''=3''))::$$-----$:)=++2}}|598}}++++>}1,+,    ",
"                                                                                                 7}.++^!==='''''''')):::$$-----[))=++.1|89908}}}}}}}}++|    ",
"                                                                                                61.++^!==='''''''''))::$$$----$):)'++}|09a90008581}+!^.     ",
"                                                                                               6b}++^!===''''''''''))::$$$----$::;'+.}0aaaa9905|+!=!^21     ",
"                                                                                               7}++^!==='''''''''')))::$$-$---$::<^+}09aaaa905}+='=!+,      ",
"                                                                                              c1.+^^==='''''';)''''))):$$$$$$--$:<.^.daaaa95.^!=''=^.1      ",
"                                                                                             6e}+^^!==='';)''))'''))))::$$$$$-$$:)+..b09908}+!''''=.1       ",
"                                                                                            77..+^^==='';):';)''''))')::$$$$$--::)=.+.|0}+.}}+!'''^.|       ",
"                                                                                            5}.++^!==''')))''''';)'''):::$$$$$$:))'+.+}^=''^.}2#'=+,        ",
"                                                                                           6|.+++!=='='';''''');))'')))):::$$:::)''!+.}+!='''=+^=!.,        ",
"                                                                                          64|+++^==''==='''''):;);''''')::::$:::)'''^+}+!=='=='=!+.^3^>     ",
"                                                                                          7}}++^==='''=='''')::));''''')):::::::)''''#.+!==!!!=^..+!::3|    ",
"                                                                                         6|..++!==3=''==''''):);;''''''')))):::))''''*+2^!!^+.2.+*]-$$$)+   ",
"                                                                                        6||+++^!='''''='''''));'''';''';;))::::)''''''#.+++222+*:::$$$$$:+  ",
"                                                                                       6}|.+++!=='=''''';)'';;''''''''')))::::::''''')=^^.2.++#$$::$$$$$$'  ",
"                                                                                      c4||.++^^=='=''''):)''''''''=''';)):::::$:'''))):=^^^!*/&-$$$$$$$$-$+ ",
"                                                                                     67||}+++^!=='''''):);''''''===='')))::)::$:)):::$:)':$&$------$$$$$$$' ",
"                                                                                     54||.++^^!=='''')));'''''''=====;)):::)::::::::$$::):$$-------$$$$$$$'4",
"                                                                                    75b|.+++^^=='='';';'''''''======'))):::)):::$$$$$$$$$$$-------$$::::::',",
"                                                                                   757||.++^^==''''''''''''''''====';)))::)::::$$$-----$$$----$--$::::))))'>",
"                                                                                  c555||+++^^==3'''''';;;'''''3===3;)))::::$$::$$$------$-----$$$$:::))))''+",
"                                                                                 f575b|}+++^^='='''''))));''''=3'';));:::):$$::$$------------$$$:::))));''=+",
"                                                                                cc844|}..++^!==''';);;)::)''''''';)))::::::$$:::$$-$----$$$$$::::))));'=!^^>",
"                                                                               d085b|}+...+^==='';)):;:::)'''''';);;)::::))::))):$$$$---$:::::)))));'''!+.55",
"                                                                              9d8ee11.++..+^==='))::::::));'''''));;::):::::::)::$$$$--$::)::)))));'''=^+558",
"                                                                              906b}2..+++.^^^'''))::::)))))'''';;;;):))::$$:[$$$:::::$::):$:;)));'''=^+b58d ",
"                                                                             9985|...+^+++^^^='';)):):;))));'';));)::):::$::$$$$$:$::::::$$;;;;'''=!+,5589  ",
"                                                                            99c8b}..++!+++^^^=''''));;''''')';;)))::)::::::$$$$$$$$$:::[$$);;''''=^.45509   ",
"                                                                           999c7b}+++^^^++^^^='''''''''''''';;)))):::::$$$$::$$$$:::::$$)''''===^.e5809     ",
"                                                                          999c67|.+++++++^^^^!''''''''''';';)))):::):$$$$$$::$::::$$$:)''==!!^+>b5899       ",
"                                                                         a999c641.+++++g@^!!=='';;;;';';;)))))))::):$$$$$$::$:::$:::)''''=!!^+|589          ",
"                                                                        aa99c644,>++++gg@===''''')))))))))))):))));:$$$$::$$::::;''''''==^^++b589           ",
"                                                                       a999c674|,.+gg+gg@==';)))):))))))));)::):);:::::::$:;'='!^^^^!!!^+++,5889            ",
"                                                                      9999c664b,>.+gg+.>g@<';)::::::);));;:::$$:));)::::;'=^^^++++++++++>b558d              ",
"                                                                     a999cc644>,>>ggggg>g@<';)::::$:$::);)::$$:)));;;:;;=^^+++++++++++|e85009               ",
"                                                                    a99ccc674>>>>>>gggg+g=<';::$:$$$$$:[::))::))));;)'=^^++++++...}45558809                 ",
"                                                                   aa99ccc67|>>.>>>gggg@@@='):$&$$&&$$$$::);;::);;;'!^++++++..|4458888009                   ",
"                                                                  999ccc6684|>>>.g>ggg^@@@'':$$&$$&&&-&:[):);;))'=!^^++++.1444455888009                     ",
"                                                                 999c666775|}}>>gggggg@''=<;:$&&&&&--&$:;;):;;);!++++..}444445558899                        ",
"                                                                999c6788554|}>>>gg^^^@!''<';$&&-$$&-&&::;);;;'=^+++.|444444588809                           ",
"                                                               99cc667474541}>.gg!!!''''''')$&&&$$$&&&:));;;!^^++.}4444458888009                            ",
"                                                              cc0666774444b,}>+g^===';'''))::&$&&$$&$$:))<'^+^.}44444558888099                              ",
"                                                             hc6677755444||}>+g^!===';''')::$&&&&$$$:):)'=!^+|4445555888809                                 ",
"                                                            9cc6677774444|12.+^^=''''';'')::$&&$$::::));=!^}5555585000009                                   ",
"                                                           9dc66777777444|}..+^^='''';::)::$:$$:$)));;'!!!.88800099                                         ",
"                                                          9ccc6777444444|1...+^^!''';::$:::::$:));;;'<=!^.889                                               ",
"                                                         99cc67744444444|}..+gg^=''')$$$)::::);;;;''=^^^1e0                                                 ",
"                                                        9i9c665544444|4||}>.+gg!';';::$$)::$);''''=^^^^10                                                   ",
"                                                       99icc675444444||||1..+^!'';);;):$$:$:);''=!+^+.0c                                                    ",
"                                                      a99cc655444444|||||}>++^!';)));)$$$::));<<*#^^1||                                                     ",
"                                                     aa99c667444444||||||2.+gg^';):::$$$::);;'=*+#^j0c                                                      ",
"                                                    aa99cc65444b44||||||}..gg^!';)::)$$$:));'=###+.0c                                                       ",
"                                                   aaa9cc675b44|||||||1}}.+^!^=';;;;)$$&$:;'<*+j2b00                                                        ",
"                                                  a99ccc6844|bb|||||||}}..g!=='';;;;):$:$:;<*#.|b50c                                                        ",
"                                                 aa9cc0677||||||||||}}}}.gg!'';)))));:::::'@##kb8dc                                                         ",
"                                                a999d66644|||||||1||}}}>+^g!')::$:$);):::;=*#j|e0d                                                          ",
"                                              aaa9ddd664||||||||||||||>>+g^!'::$&&$:;::);<##jke8d                                                           ",
"                                             aa99cc0684||||||||||||||,>>ggg!;::&&$$::::;<@.jke50                                                            ",
"                                            aa999c66874||||1||||||||,>>>gg^=;:::))):::)'*+.jbe80                                                            ",
"                                          aaa99dc077544|||}1||}|||||>>>>gg@=;):));';:;'=#+j|e50                                                             ",
"                                         la99cd0667774b||1}|}},,|||,>ggg^!@='';;:)''''<@mjkb58                                                              ",
"                                        aa99cc0687444|||1}}}}},|||,,>gg^!=''''';:::''<<#.1b58                                                               ",
"                                      aaa99c00778444|||1}}}}|||,,,>>gg^@='''''';;::)'/*mke88                                                                ",
"                                     aa99cc66675744|||}}},,,||,,,>>gg@='''';';;;;);;/*#j|e0                                                                 ",
"                                    aa99ccc75744|4|||}}}}}},|,,,>>>g@@''';)::);;;;'/=#j1e8                                                                  ",
"                                  aaa99cc667574|||1}}}}}}}},||,>>>g^!='';:::::);'''=#j|50                                                                   ",
"                                 aa99cc66655544||||}}}}}}},||,,>>>g!=='')::$$$:;<<=#j1560                                                                   ",
"                                aa9cc6687774444||1}}}}}}}|,||,,>>>^!='''::---n$'<!@.kb0h                                                                    ",
"                              aaa990677577444||||2}.}}}}}1||,,,>>g^=='';::$$-&:'=#m}b7c                                                                     ",
"                             li99cc67755444||||1}...}}}}},||,,,>>^!'';;::::)$:;=g.j17c                                                                      ",
"                           aaai996667745444|||}}.....}}}}||,,,>>g^''';):;));''<@.}|5c                                                                       ",
"                         aaaa99c65577544444|}1}......}}}1||,,>>gg!''';';;;'''<@g214d                                                                        ",
"                        aaa9cc086847444b|||}}}....++.}}}||,}>>g@!=';;'';)''''!@+}b80                                                                        ",
"                       aaaa9666555444444||}}......++.}}1||,>+gg!=';))'';:'')'*+}|5c                                                                         ",
"                      aaa99c67744444444|||}...+..++++.1|||>>+g^!';:::;'')'';=+.|56                                                                          ",
"                     aaa9cc7755444444||||1....++.++..2|||,>.gg!'):::)''''<'=#+}e0                                                                           ",
"                   aaaa9c667754444441|||}}...+++++.2}1|||}>+g^='::);;;''<!@@.}b0c                                                                           ",
"                  aaa99c67774444444|}|||}.....+++..}}|||1>.g^^';);''';);!gg+}b6c                                                                            ",
"                 aaaac67774444|444||}}}}}..+..+....||||1}>+^'''););;';)'!g+}e8c                                                                             ",
"               llaa9965447444|||4||}}11}..++++++..}|||1}}+^=';;:::::;''=!g.48c                                                                              ",
"              llaaac0774444444b||1}}}1}...++++++++}|1}}2.g^=';')):$$:)'@@+188                                                                               ",
"             llla99c777444444||||}}}}}...++++++.+.}|1}}.+^!=';;;;';::)'@+.b7                                                                                ",
"            llaa99c675444444|||}|2}......++++++...|}|}>++^!=';:))''):'=^.||                                                                                 ",
"           laaa99c67744444b||||}....++++++++++++..|}}>+++^^''':$$)'''=@.|5                                                                                  ",
"          llaaacc657544444|||}}}....+++++^++++++.}}>>.+g^^='''):$:)'=@+|7                                                                                   ",
"         aaaa99d085544444|||}}....+++++++^^++++.+>}>>.gg!!=''):$$:;=@+}46                                                                                   ",
"        llaa99c088844444b|||}}..+.++++++++^^+++++>>>>gg!='';):$$:;=!+.bc                                                                                    ",
"       aaa999c0685444444||}}}..++++++++^g+^^g++.>.>+gg^!='::$&&::'@^.|b                                                                                     ",
"      aaa999666884|44444|1}}...+++++gggg^^^ggg+>>>>+g^^='':$&$$:;=@.}b                                                                                      ",
"     aaaa99c668544444|4||}}}....gg+g^g^gg^ggg++>>>+gg^!=';)::$$;;=@.}b                                                                                      ",
"    aa999ccc675444444|||}}.}.+++g^ggggggg^ggggg>>ggg@!!';;)::$)'!@!.b                                                                                       ",
"   aa999dd0857444bb||||1}.....++ggggg>ggggggggg>ggg!==''::$$$::'@!.}b                                                                                       ",
"  aaa99cd6658444|||||1}}...+.++ggggg>>ggggggggg^gg^=''';$$$$$:';!.}b                                                                                        ",
" aa999c0677544|||||}}}}+..+++g^^^gggggggggggg^g^@@!'''')&&$$::;!.}b                                                                                         ",
"9a999c6685554|||||}}}}.++.+++^^^gggggg^@@@ggg^@@==''''')$$$::;!.}b                                                                                          "};
