/* XPM */
static char * hand2_xpm[] = {
"156 118 53 1",
" 	c #00FF00",
".	c #74402C",
"+	c #805430",
"@	c #683828",
"#	c #7C5438",
"$	c #B0885C",
"%	c #C09C70",
"&	c #AC8058",
"*	c #704834",
"=	c #5C3414",
"-	c #683C1C",
";	c #9C6C48",
">	c #B88C64",
",	c #8C5838",
"'	c #7C483C",
")	c #986C4C",
"!	c #845048",
"~	c #885034",
"{	c #986440",
"]	c #A0704C",
"^	c #8C6440",
"/	c #B08868",
"(	c #BC9468",
"_	c #844C30",
":	c #8C603C",
"<	c #A87850",
"[	c #A47C58",
"}	c #5C2C24",
"|	c #54281C",
"1	c #582C24",
"2	c #68342C",
"3	c #945C3C",
"4	c #4C2014",
"5	c #3C1C18",
"6	c #38140C",
"7	c #401810",
"8	c #381C18",
"9	c #200C0C",
"0	c #301414",
"a	c #140808",
"b	c #4C241C",
"c	c #2C1414",
"d	c #301408",
"e	c #482420",
"f	c #381804",
"g	c #744824",
"h	c #301000",
"i	c #101010",
"j	c #603C2C",
"k	c #543028",
"l	c #704034",
"m	c #080808",
"n	c #B49050",
"                                 ..+.@                                                                                                                      ",
"                                .#$%&*@                                                                                                                     ",
"                          =..--.*;&>>&,@                                                                                                                    ",
"                        =.*')!'*.~{];;]{@                                                                                                                   ",
"                       -*^&/(($^@@._,~~{_@                                                                                                                  ",
"                     @@#)>$&>>>>]~.@.,~~_.                                                                                                                  ",
"                    ._:]]<<<&>>&<;,_@.~~~_.                                                                                                                 ",
"                  -.^[<<<<<<&&>&<],,_@.~~__.                                                                                                                ",
"                -.~^<<<<&<<&&&>&<],,,.@_~~_.}                                                                                                               ",
"              .__;<<&&<<<<&&&&>>&<,,,~.@_~__@|                                                                                                              ",
"            .__;<<<&<&&<<<&&&>>>>&],,,,._~~_.}1                                                                                                             ",
"           .~,{<&<<<<&&<<<&&&>>>>&]{,{,,,,~~_@}                                                                                                             ",
"         =_#;]<&&<<<&&&<<&&&&&>>>&<{,{{{{{,,_.2=                                                                                                            ",
"       -..{]<&&&<<<]<&&<<&&<<&&&&<<{{{{{{{{,,_.}=                                                                                                           ",
"      -.~{]<&>>&&<<]<<<<<&&<<&&&<<]{{{{3,3{{,~_@}|                                                                                                          ",
"     ._~{]<&&&&&&&<]{{]{]<<<<<<<<<]{{{{{3,{{{~~_@}|                                                                                                         ",
"    __,,]<&<<<<]]<<{{{{{{]]]<<<<<<]]]{{{{33{{,~~.@|4                                                                                                        ",
"   =_~{]]<<<<]]{{]]{~~,,{]]]<<<<&&<]]]{{{{{{{{,~~.}|4                                                                                                       ",
"   ._{{]]<<]]{{{~{{~.._,{{{]<<<&&&<]]]{{{{{{{{,,~~.}15                                                                                                      ",
"   ..{]]]]]{{{_.}.*.@.2{{{{]<<&&&&<<<]{{{{{33{{,,~~_@}6                                                                                                     ",
"   ..,{{{{{{{~..}}...}@~{{{<&&&&>&<]<]]{{{{{,{{,,,~_.@|7                                                                                                    ",
"   =..{{{{{,,...}}._@}@.,{{<&&>>>&<]<<]]33{{333{,,~~..}|6                                                                                                   ",
"    ..___.._...}|8}@@}2._,]<<&>>>&&<<<]]{,3{{3,3,,,~_..}46                                                                                                  ",
"    =.=1}-....}}895|}}2..,]<&>>>>>&&<<]]{{3,{{{3{,,,~..@}5                                                                                                  ",
"    |..}}}}}}}}80998|1@..,]][>>>>>&&<<<]]{{{{{{{{,,,~_..@}7                                                                                                 ",
"     @_~.}18580009a90|}..{]<]&>>>>&&&<<]]{{{{{{{{{,,,~_..@16                                                                                                ",
"     12_~,~.|5099aaaa0}@.{;<<&>>>>&&&<<]]{{{{{{{{{{,,,~_..}b6                                                                                               ",
"      =.~,{,.}509aaaa90}._:<<&>>>&>&&<<]]]{{{{{{{{{{,,,~_..}7                                                                                               ",
"      1@_,{{,~_@59aaaac@_@:<&>>&&&&&&<]]]{{{{];{{{{{{,,,__.@1d                                                                                              ",
"       1@,{{{{~.}80990b@@.]<&&>&&&&&<<]]]]{{{]]{{];{{,,,~__.}e6                                                                                             ",
"       |@_{{{~.}}@.}0|@.@,]<<>>&&&&&<<]{]]{{{{];{<];{{,,,__.@@77                                                                                            ",
"        =.,{*2}@_{{,_}.@.{]]<&&&&&&<<<]{{{];{{{{{]]]{{{,,~_..@}5                                                                                            ",
"        =@~,_.,{{{,~.}@.~{{]<<<&&<<<]]]]{{]];]{{{{{;{{,{,,~...@|6                                                                                           ",
"     -_3_@.~,{,,{,,~.}._{{{]<<<&<<<<]{{{{{;];<]{{{{{,,,{{,,_...|46                                                                                          ",
"    |3<<~.@@_,~~~,,~.@*{{{{]<<<<<<<]]{{{{{;]]<<]{{{{,,{{{,,,_..}}7                                                                                          ",
"   .]&&&>)#.@2@._~~_2.#{{{{]]<<<]]]]{{{{{{{;;]<]{{{{,,{{,3,,~..@@|6                                                                                         ",
"  .<&&&&&<<<#.222...@*{{{{{{]<<<<]];;{{{;{{{{;]]{{{{{,{{{{{,~_...||6                                                                                        ",
"  {&&&&&&<<&&*..@2@__,]{{{{{<<<<<<]]]{{{{{{{{{;;{{];{{{{{,{,,~...@|}6                                                                                       ",
" .&>&&&&&&&&>$^#~___,<]]]{{{<&<<<<<]];{{{,{{{{{{{{]<]{{{{,{,,__..@||4d                                                                                      ",
" {&&&&&&&>>>>>>&$&<{]<&<<<]]<&<<]<<]]]{{,,,,{{{{{{;]<]{{{{{,,~_...}||76                                                                                     ",
"4{&&&&&&&>>>>>>>&&<]<<&&<<<<<<<<]<<<]];,,,,,{{{{{{{;]]]{{{{,,~__..@||45                                                                                     ",
"={<<<<<<&&>>>>>>>&&&&&&&&&&&<<<]]<<<]]]{,,,,,,{{{{{{{;{;{{,{,,__...@|b57                                                                                    ",
"-{]]]]<<<<&>>&>>>>&&&>>>>>&&&<<<<]<<]]];{,,,,{{{{{{{{{{{{{{{{,,__..@||757                                                                                   ",
".{{]]]]<<<&&&&>>>>>&>>>>>>&&&<<&&<<<<]]];3,,,3{{{{{;;;{{{{{{3,,__...||555d                                                                                  ",
".,{{;]]]]<<<&&&>>>>>>>>>>>>&&<<&&<]<<<;]];{{3,{{{{;]]]]{{{{{,{,__...}|b575f                                                                                 ",
"-__~,{;]]]]<<<<&&&&&>>>>&>&&<<<&&<<<<<<]]];{{{{{{{]<<];;];{{{,,~_..@@}|448dd                                                                                ",
"55@.~{{{;]]]]]<<<<<&>>>&&&&<]]]<<]]<<<<];;];{{{{{{]<<<;<]];{{,,,_.@@@.}|b580c                                                                               ",
"855._,{{{;]]]]]<<]<<&>>&&&&<<]<<<<<<<]<<;;]]{{{{{;]]<<<<<<]]{,,,_.@@..@11ee8c9                                                                              ",
" c85b._,{{{;]]];<&<]<<&<<<<<&&&[<&&<<]]<];;;;{{{{]]]]]<<<<]]{{{___@...@@2}b609                                                                              ",
"  9855=.~,{{{;;;;&&<<<<<<&<&&&&&<<&<<<]<<];]];{{;]]]];<]<]];{{,___..._.@@@|5899                                                                             ",
"   90554@_,{{{{;;]&&[<<<&&&&&&&&&<<<<<<]<<]]];;{]{{{{{;;]]{{{{,___...~..@@}b8d99                                                                            ",
"     9085e@_,,,{{{{]&&<<<<<&&&&<<&&&&<<<<<]]]];;{{{{{{{{{{{{{{,___..___...}b7d999                                                                           ",
"       9985b-._~~,,{{]<&&&<<<<&<<&&&&&&<]<<<]]]];{;{{{{{{{{{{{~____.......@|76d999                                                                          ",
"          985|._~~,{{{{]<<<&<<<&<<&&&&&&<]<<]]]]]]];;{;{;;;;{{,,~~_+g.....@146d999a                                                                         ",
"           985b..__,,{{{{{{;<<<<&&<<&&&&<;]]]]<]]]]]]]]]]]]{{{{{,,,+gg....-=446d99aa                                                                        ",
"            9885=..._~~~____~{,{;<&<<<<<<<;]<]<<];]]]]]]]]<]]]];{,,+gg.gg.@=|476d999a                                                                       ",
"              c855b-..........___,{;<<<<];]]<&&<<<;;]];]<<<<<<];{:+g-@.gg.@-=b466d9999                                                                      ",
"               90058e|...........__,;;<;;;]]]<&&<<];]<<&<&<<<<];{:+g-ggggg--=-446dd999a                                                                     ",
"                 90885554}@@@......__,{];;]]]]<<]]<<[<&&&&&<&<<;{:,g.gggg------476ddd99a                                                                    ",
"                   9008888544|@@......_~{;;;]<<;;]<<&&&&$$&&$&<]{,+++gggg---@--|76ddd99aa                                                                   ",
"                     9008885544441@....__~,{]];;]<][<$>$$$&&$&&<{{+++_ggg-g@---|4866ddd999                                                                  ",
"                        998855544444}@@....~;];;<];;<&$>>$$$$$&<;:,{{+gggggg--}}|577666d999                                                                 ",
"                           908885444444|@..._,{;;;];<<$$>$&&>$$&;{:{{~+___gg---}|4558876d999                                                                ",
"                            9008888544444}@..__~;;;]]<$$$&&&$$$&]{{{{{{{~~~gg@-}145474766dd99                                                               ",
"                              99088885544444}@_._{:]]<&&$&&$$&$<<]]{{{;{,,,_g.-}=b4444776660dd                                                              ",
"                                 9088885555444|._~,{]<]<&&&$$$$&<<]{{{;{,,,~_g.-}||4445577766dh                                                             ",
"                                   9000005855555}_~,;]]<<<<&&$$&<<]{{;{{{{{,__.@21|4444777766dd9                                                            ",
"                                         99000888@~~~{;;]]]&<&&<&<<]<<;{{{{,__.@@}|44477777766dc9                                                           ",
"                                               988@_~,:{;;;]]<&<<<<<&<<;{{{~__.@@@1|4444447776ddd9                                                          ",
"                                                 0e1___,{{;;;;]<<<<]&&&]{{{,_gg.@@}|44444444776dd99                                                         ",
"                                                   01____,{{{{;]&<<]&&<<;{;{~gg.@-}||4|444445566d9i9                                                        ",
"                                                    d0@._.~,{{;]<&<&&<];;];{{~_.@@1||||444444576ddi99                                                       ",
"                                                     ||1__*#::;]]<<&&&];]]];{~_..-}|||||444444556dd99a                                                      ",
"                                                      d0j_*.#,{;;]<<&&&<<<];{_gg.@2||||||444444766d99aa                                                     ",
"                                                       d0@.***,{;]]<&&&]<<];{~_gg@@}||||||44b44456dd99aa                                                    ",
"                                                        00b2j.#:{;<&$&&];;;;{,_~_.@}}1|||||||44b576dd9aaa                                                   ",
"                                                        d05b|@*#:;<&<&<];;;;{{,,~g@@}}|||||||bb|4486ddd99a                                                  ",
"                                                         dc8bk**+{<<<<<;]]]]];{{~gg@}}}}||||||||||7760dd9aa                                                 ",
"                                                          c0e|j*#,;<<<];]&<&<<]{~g_.-}}}||1|||||||44666c999a                                                ",
"                                                           c8ekj**:;]<<;<&$$&<<{~_g.--||||||||||||||466ccc9aaa                                              ",
"                                                            05ekj@+:;<<<<&&$$<<;~ggg--=||||||||||||||4860dd99aa                                             ",
"                                                            08ebj@.#{]<<<]]]<<<;,_gg---=||||||||1||||47866d999aa                                            ",
"                                                             05e|j.*,{;<;{;]]<];,+gg----|||||}||1}|||445770dc99aaa                                          ",
"                                                              85bkjl+:{{{{]<;;{{,+~_ggg-=|||==}}|}1||b4777660cd99am                                         ",
"                                                               85b1@*::{{<<<;{{{{{,~_gg-==|||=}}}}}1|||4447860dd99aa                                        ",
"                                                                88ekl#^{]<<;;{{{{{{,+_gg--===|||}}}}1|||44487700d99aaa                                      ",
"                                                                 0e|j*#^;;];;;;{;{{{{,+gg--===||===}}}|||44757666dd99aa                                     ",
"                                                                  8e1j*,^{;;;;]<<];{{{++g---===|=}}}}}}|||4|44757ddd99aa                                    ",
"                                                                   05|j*,{{{;]<<<<<;{{,~_g---=||=}}}}}}}}1|||475766dd99aaa                                  ",
"                                                                   0651j*,::;<&&&<<]{{,,~g---==||=}}}}}}}||||44555666dd99aa                                 ",
"                                                                    h0bk@+~:{&n>>><<{{{,~_---==||=|}}}}}}}1||4444777866dd9aa                                ",
"                                                                     d7b}l*,{<$>&&<<;{{,,_g--===||1}}}}}@}2||||444775776099aaa                              ",
"                                                                      d71j@g,;<&]<<<<;;{{~_--===||=}}}}}@@@}1||||44455776dd99im                             ",
"                                                                       d5|}@+:{{;]];<];{{{_g--===||}}}}@@@@@}}|||444547766699iaaa                           ",
"                                                                        c412g+:{{{;;;{;{{{~gg--==||1}}}@@@@@@}1}|44444577556d99aaaa                         ",
"                                                                        08b}.+~{{{{];{{;;{,~+g--}=||}}}@..@@@@}}}|||b444748680dd9aaa                        ",
"                                                                         d5|}.#{]{{<;{{]];{,~gg.-=||1}}@..@@@@@@}}||4444445556669aaaa                       ",
"                                                                          65|@.,;{{]{{;<<<;{~_g.--|||1@....@@.@@@}|||44444444776d99aaa                      ",
"                                                                           0e}.*,{:{{{{]<<<]{~gg@-=|||2@@..@..@@@@1||||4444445577dd9aaa                     ",
"                                                                           d0b}@++~:{{;;;]<<{,_g.-}|||1}2@.....@@@}}|||144444457766d9aaaa                   ",
"                                                                            d6b}.gg~;];{{{;];{__g@-1|||}}@@...@@@@@}|||}|44444447776d99aaa                  ",
"                                                                             d8e}.g~{];{;;];]{{{_.-}1||||@@@@.@@.@@}}}}}||444|44447776daaaa                 ",
"                                                                              d84@g~,{{;<<<<<;;{,_.}}1|||}@@......@@}11}}||4|||4447445699aamm               ",
"                                                                               881.++{]<&&<]]{;{,_g@2}}1|}........@@@}1}}}1||b4444444770daaamm              ",
"                                                                                7b@.+{]<<;{;;;;{,~_.@}}1|}@.@......@@@}}}}}||||444444777d99ammm             ",
"                                                                                 ||@_,{<]{{]]<;{,~_..-}|}|@@@......@@@@@@}2|}|||444444576d99aamm            ",
"                                                                                  5|@+,{{{]&&<{{{__...-}}|@@............@@@@}||||b44444776d99aaam           ",
"                                                                                   7|.+,{]<&<]{{{,__g.@--}}@......_.....@@@@}}}|||444445756ddaaamm          ",
"                                                                                   64}.+,;<&&<]{{,~~gg@--}-.@....__.......@@@@}}|||444445580c99aaaa         ",
"                                                                                    db@.~,;<&&<];{{,~gg----.....__........@.@@}}|||b444448880d99aamm        ",
"                                                                                     b|@_+{<<$$&<<{,~_gg.-@-@..g__.g_........@@}}}||4444445860d999aaa       ",
"                                                                                      b}@+,;<&&$&<{{,__g.----.ggg___gggg.....@@@}}1|44444|488666999aaa      ",
"                                                                                      b}@+,;;&&<<];{,~_gg.---..ggg_gg_g_g.gg@@@@}}}||4|444445866d99aaaa     ",
"                                                                                       b@~+~{]&<<];;{~~+ggg--ggggg_ggggggg_g...@}@}}|||444444576ddd999aa    ",
"                                                                                       b}@~+{<<&&&<<{{,,~ggg-ggggggggg-ggggg..@@@@@}1||||bb4447580cc999aa   ",
"                                                                                        b}@~;{<&&&&&;{{{,_gg_ggggggggg--ggggg..@.@@@}}1|||||4448566cd99aaa  ",
"                                                                                         b}@~;<<&&$$]{{{{~++_g_gggggggggggg___g...@@.}}}}|||||4457760d999aa ",
"                                                                                          b}@~;<<&&&]{{{{{,,++_ggg+++_gggggg___...@..@}}}}|||||4555866d999a9"};
