/* XPM */
static char * in_wall2_xpm[] = {
"64 64 91 1",
" 	c #C4C4C4",
".	c #CDCDCD",
"+	c #CCCCCC",
"@	c #C9C9C9",
"#	c #CACACA",
"$	c #C5C5C5",
"%	c #BDBDBD",
"&	c #C1C1C1",
"*	c #BFBFBF",
"=	c #BEBEBE",
"-	c #C3C3C3",
";	c #BBBBBB",
">	c #BABABA",
",	c #BCBCBC",
"'	c #C2C2C2",
")	c #C0C0C0",
"!	c #0A0A0A",
"~	c #C6C6C6",
"{	c #C8C8C8",
"]	c #C7C7C7",
"^	c #CBCBCB",
"/	c #B9B9B9",
"(	c #B8B8B8",
"_	c #A2A2A2",
":	c #A0A0A0",
"<	c #CFCFCF",
"[	c #B3B3B3",
"}	c #B5B5B5",
"|	c #A4A4A4",
"1	c #8E8E8E",
"2	c #868686",
"3	c #B6B6B6",
"4	c #D0D0D0",
"5	c #9F9F9F",
"6	c #959595",
"7	c #5F5F5F",
"8	c #606060",
"9	c #9E9E9E",
"0	c #A7A7A7",
"a	c #9B9B9B",
"b	c #AFAFAF",
"c	c #969696",
"d	c #D2D2D2",
"e	c #7E7E7E",
"f	c #A5A5A5",
"g	c #9C9C9C",
"h	c #898989",
"i	c #CECECE",
"j	c #9D9D9D",
"k	c #979797",
"l	c #929292",
"m	c #999999",
"n	c #A1A1A1",
"o	c #B7B7B7",
"p	c #909090",
"q	c #989898",
"r	c #8D8D8D",
"s	c #888888",
"t	c #9A9A9A",
"u	c #919191",
"v	c #D1D1D1",
"w	c #5E5E5E",
"x	c #AEAEAE",
"y	c #B4B4B4",
"z	c #B2B2B2",
"A	c #5C5C5C",
"B	c #5B5B5B",
"C	c #585858",
"D	c #808080",
"E	c #ABABAB",
"F	c #A9A9A9",
"G	c #A3A3A3",
"H	c #8C8C8C",
"I	c #D4D4D4",
"J	c #B1B1B1",
"K	c #7C7C7C",
"L	c #ACACAC",
"M	c #878787",
"N	c #5D5D5D",
"O	c #595959",
"P	c #939393",
"Q	c #484848",
"R	c #AAAAAA",
"S	c #8B8B8B",
"T	c #7F7F7F",
"U	c #858585",
"V	c #2B2B2B",
"W	c #616161",
"X	c #2C2C2C",
"Y	c #A6A6A6",
"Z	c #D3D3D3",
" .+@@#@$ %&*=%&-=;%=>,%';%%&)=,!!~#@{#$$]-&+. {%*)'--',&& $&{+$$",
"~#]$@^.@ &,,;/*,>%;/(''!!%,*%)*!!_@@#]~@{{]{{$'&=~{]-'^@$*~-+.~#",
"$@& @]^]$=/=*;=%;*,>;'-!!=%')&'~!!$@] ~]@{@@:{~)&- !!^<^&;&^@]{<",
"'~)$${$>$==**-&*=*=%%&~!!)>&='[}|!{{''!!]$]#!!!123,!!!4~'!5^##{-",
"-&' $~$-&&*=-~ '-);!*=%6!*,=)&78<!5'% !!9')]~9!!!} !!!0{a!!{]^~*",
"]) {- ~'=-'**]~-&!!!b==%!c(-&&!!d!!*=~!e!&'&**)!!;]5!f!^g!!@#@^'",
"--~~)*-{%**&-&$ ')!!h)%;!!=&*>!!i]!>$.!^!&,,!,=/!($'!.!!j!!0^~.)",
"  ]$',* %>%*&=&]]'&''=)=k!) -%!!]'!!$+!@!!*;!!l%!m=)!#n!m!!!@ + ",
"&' -*%,;/o,))(;$]-''='&)*!!~$-!!{-)!g9!$!!=(/k!!!!;]!5'!!!!!&-^&",
"*)&&'=(,/}%o=/>)--)*;>&&'&!-)%!n< *a!!!{!!!>>=)!!!*~!a&m!!g!))$~",
")&)*=;/}[o>/=));&$)'!!o'*&!!*;!.+-,~!!#.i!!!!!/hh!;=!!-(!!&!)=]@",
"= )-''%}/}(,* )>*--&!!*-{-=!pq!^#,,$#^#.'!r,!!!!s!t&!g'(;!=!,*]#",
"/&='-*,>(3%)=*'%&, ~[u '@~)(!!$^#&o,@+v{)wx)&&~j!!t'~$ &)%);%&~]",
"-*$~~,(o%o>&*)'=',) $~] {-&,lc~+-/o)~ @ ~]*-$$@ -{@{]-& ))%*-${]",
"*$  -,o/')'' $&)&;*=%>,~$=%,3%]{) )]~& .#$$${~~$'@]@@)'&&='-@{{~",
"'$%$,;3o&=~]$$]'*,='*,o%)(%=;)]$){@#] ^#@#]& $~*&$%${&)'' '-{@{@",
"$ )]%(3**/=#  ~-*%*'%>%;%>;,%' ~-~]--{^##{$ ]~{(%~@@]&*&)$] ]#{~",
"$$' >3/)&}]{~{]);=)'&&'%=*o%>'~{~]'--]^+^]@]~&'%)~++@$ *-$~ '~~$",
"$${-%o(y%;% ] ~&%& ${$$-&,;%%-~ ]'&$$]@#!]{{!{&=){@+]$!!$~-@$]~$",
"'@#=,} )(3)~$]$$'-!!-*'zA*> )$]~~))%t~]{!! !!!^-~^]~-!!B- ^!!##{",
"]+.{'>* =o=' ${!'&!!t;'zC&~{-$up{->!!') !D!-!!n'{+< &!s!! !!!!@<",
"~iv@*%=%=b(! +!!]-!!!3/~!!~ -]pp~{!E!!=-!!!!!!!-{~#{$!kF!!5!#!!+",
"~^-]=*%,,;,!!G!]$q!{!c>&9!]-!!]!a'!=&!t$!!n!!e!'$$]@ !!~!!@!.+#.",
"]{@~$)o%&-&&!!^@@!!~!!h)'!a'!!-9!)!!$j! ~!{!!:!!$-+~# !9!!{!!i@{",
"ii@)]~%;$;*-!!@.#!!!!!H~$g!;]!~~!ga! ~!n#!:n!)$!~#@@--!!!]@0!^~~",
"i#{{{&;%]-&!!!!i{!!!!!!!!t!!~]!~!!$!{{!!.!!~~))!-^i$&),,%'+4v4@'",
"v^{+]&/) * !& !G{!!]$&!!!!!!{#G!|!~#!n:!i!!#@'%/*#+&=*),/){^@^$-",
"<d#@$-=*~='>%~!G@!!{{ !!'*&!!.^@!!##i!!!@~@^##&%~#~=)&*>;'$~#@~+",
"vddi$~)$@  &,$]$~$$-$~)&'- {+^]^++]+.+!.vi+{*$ &@@$='&-&- - ~$-@",
"4I4.#@{]~--J&%' '~-=*]%%;) $#@'~.v<+$~@.<<] &$),~# -~$~{$$$#^~$@",
"v<#i^<## '=,3/;'* );%';>=-~#{~ #{{@+#@^<^@-'&-%'#{ $!!u==~!!!'-{",
".<#.+.{--&=;(( ~]~&);,>>= ]]$]@#@{^^~'${-=]~*KG!!7b5!!!;&!!-*,*$",
".i@+++#')$-'L;-$$~=;/*&' !9!!9!9!^{{$'!^:!];!!!!!!b!9]!c*!~=)>/&",
"<<~{++#*-)';=&{~${'=''~]$!!!!&!t!5@!g]!':!5*&G!M_{&!$@!!&!~-',/*",
"<<-##^$&)-$-&${#$~$---@<]--)!,!!!!{!!{!a:!!&,!5{{]$!]~!!$!:!-%=)",
"#{$@@] )**)'$) {'{~{]=@]^!!,!!-!!!-!!]!G_!!!t!-]-~@!!]!!$:!!!%,~",
"#$]^~]- '*&$ =='&&){'&-{$t!!!!)!!!!&!9!nG!~!z!&-~]._!{!!!!!!!'%~",
"{$@~~~) ]) $~&))-$'-  -*''c;g!'$!t! {!!^5!'NO!g&$~{]@!!5 5~:!*&=",
"$~ ]~=;*$' '$ &$~~')%*=,&'!!!!!%!) ']!~^~$-*'t!!] $-$:@]-  ]';*;",
"] $$-,,;,[))' $#{$*=''%,* )!!!w=o&~@{#+^@{~=*'!!@ ]$ ${@{ *& *'(",
"$= ~'='-;0['=$-i@]-&@#''$~$   ',=]~@{@.4+^)**'$@]{{$$$$  ]~& '~ ",
"-&)~$)'' -(--#~^^6P +^]%-{&-~ '=/$${{{{#^~-g!--~~@@~~&$5$@ --* {",
"$-)${-~-{~]'!#@!!!!Q!5!,R7$!!!G'=''{{!!]]!!!! ]]]]]]&!!!{{!!!!$#",
" &] ~~ !{e{!!!!5!!!!!]!tb7&!9!a)&-m!^!g-:!#.&'-~~@+ !!~!-$:5=!%'",
"&'@ '''!!!k!]!!m-!! ]]!!~!a]#!-'=-*~!!$]{$!! #~-{^.9!-]!!-{!!!(=",
"=)-)'**=q!P!!!!!&!n{]]!!@!5+!!$-'{ '!!~@@$!!]@{-~$@!!$#5!~!!!!,;",
"/%=;%,)!S!(=!!-!-!9]!!!!#!!{[!&${]~q!!!]n!  @!!]#)~ !]$!!-!T~^%,",
"(%;/(;&t!!')!) !$!--ga!!~!!]~!-]+]$!!q!  !!!!!!@#> ~!!!!&>=!!^'>",
"o(/(;)$$|! 9!,*') &==)''@{$~-$$~]- !%=&  ~-{_]]{{-  - ]$ ' $!!&&",
"o>(>* ]$!:*]-'-$*--**==,]{]* $---*%= -&$ &)@@]@{###)$)$$$-'@+n'$",
";///*~~]~,&-o>{{$~ '*=;,]~&*$~ '';);,*&);*$$@@~{^{i~{-  $$$]]#$~",
"*(;;*@$] ;(*&=#]]{ )**(*& *${{ '-')=,,;;&;,=]{ ~@@.##$-']$$'~@@]",
"'=;=)~$@ -o>$ {~~#~-=&/'&=% ]~]] '=%/o(,!>&;$#i${#iii#~'-) ~'{#-",
"'-*-$$]]]-**& )&-~] &$='-&ru~~~#@$),MU/!!!&-$+.{{@+G|0pV}~)!!G{~",
"'--~@~{~{  &~ &==-~@ '& {@!!]~!:$ )'!!;!)!) '$ !!W{!!!!X}~!k:,$]",
"&' ~++#]#~~$-)'***-{{# ~_#!!^]!T-)$ m!c!&!!---!!}!g@] !!]]!*%$''",
"& ~]@]@@#*]~~&&' ' ~#^&~!!!!^{!!~$#~%!l!!!!*$ !!]g!{#!!!# !a-&&=",
" ~@ ~ ]{]~$  &%$~  $^i@#{G!!~!!!]@i@ !t!![!a- ]!~{!5!!@--$!! )%%",
"#{^'$ ~-~$')&$&$]~  ]+{@iG!!{!!!!~!_5!!-bz!t)]]'!5!!!!{~'&!!!! '",
"]@~{{$$)*~),,)*&&-$$~+~@|!G!]!5]!_!!!!!$]'w[^{~ !!!+Y!!]=-!!!n@]",
"]~]@{]$;=&%>%)&), ~~@..!!+G!@!5]f)']]${]~{Nx@#]'--#<#i!{''-)-^~&",
"]]{]{{'%),>/()-';&]$.<+<^.Zd.^]{$ -- $&-- ]{{@]*)$#@.i{{  ${{^'=",
"]]~@# &=>o%>=''$& -~++.4<vvv#{-] **'*='**,>'$]]')@^#^#~]~'~##]~]",
"] @+.~&)%(;-~$~ ]-&]^i<<<.ii#]{~~---&**)==(,&)~&-^~@]@~&''-${'$."};
