/* XPM */
static char * in_wall2 NOTREVERSE_xpm[] = {
"64 64 91 1",
" 	c #C5C5C5",
".	c #CCCCCC",
"+	c #C8C8C8",
"@	c #C1C1C1",
"#	c #C4C4C4",
"$	c #BCBCBC",
"%	c #C2C2C2",
"&	c #C3C3C3",
"*	c #C0C0C0",
"=	c #BFBFBF",
"-	c #BDBDBD",
";	c #CDCDCD",
">	c #C7C7C7",
",	c #CACACA",
"'	c #C9C9C9",
")	c #C6C6C6",
"!	c #0A0A0A",
"~	c #BEBEBE",
"{	c #BBBBBB",
"]	c #BABABA",
"^	c #CBCBCB",
"/	c #A2A2A2",
"(	c #B8B8B8",
"_	c #B9B9B9",
":	c #CFCFCF",
"<	c #A0A0A0",
"[	c #9F9F9F",
"}	c #D0D0D0",
"|	c #B6B6B6",
"1	c #868686",
"2	c #8E8E8E",
"3	c #A4A4A4",
"4	c #B5B5B5",
"5	c #B3B3B3",
"6	c #9B9B9B",
"7	c #A7A7A7",
"8	c #9E9E9E",
"9	c #606060",
"0	c #5F5F5F",
"a	c #959595",
"b	c #9C9C9C",
"c	c #A5A5A5",
"d	c #7E7E7E",
"e	c #D2D2D2",
"f	c #969696",
"g	c #AFAFAF",
"h	c #9D9D9D",
"i	c #CECECE",
"j	c #898989",
"k	c #999999",
"l	c #A1A1A1",
"m	c #929292",
"n	c #979797",
"o	c #B7B7B7",
"p	c #9A9A9A",
"q	c #888888",
"r	c #8D8D8D",
"s	c #989898",
"t	c #909090",
"u	c #AEAEAE",
"v	c #5E5E5E",
"w	c #D1D1D1",
"x	c #919191",
"y	c #B4B4B4",
"z	c #5B5B5B",
"A	c #5C5C5C",
"B	c #B2B2B2",
"C	c #808080",
"D	c #585858",
"E	c #A9A9A9",
"F	c #ABABAB",
"G	c #A3A3A3",
"H	c #8C8C8C",
"I	c #B1B1B1",
"J	c #D4D4D4",
"K	c #7C7C7C",
"L	c #ACACAC",
"M	c #878787",
"N	c #595959",
"O	c #5D5D5D",
"P	c #939393",
"Q	c #AAAAAA",
"R	c #484848",
"S	c #7F7F7F",
"T	c #8B8B8B",
"U	c #2B2B2B",
"V	c #858585",
"W	c #2C2C2C",
"X	c #616161",
"Y	c #A6A6A6",
"Z	c #D3D3D3",
"  .+@ #@@$%&&%*=-+#;.@&>  ,+',)!!$~*@--{%-$]~-{~&@-~=@-# ',''.;#",
",);.&)= '^%&>+)~@% ++>++')>,''/!!=*-=$-!!%%(_{-]$=_{$$@#';^' >,)",
":+>'^@{@^:^!!#&@*)+<''+'>)#>' !!)%@*%-~!!&%{]$={-~{=~_~ >^>'#@' ",
"&+,,^[!%)}!!!$|12!!!,> >!!%%++!345%~@]*!!)@--~=~=@&==~~ ] +  *)%",
"=)^>+!!6+7!!!#4!!!8)>*%8!!#-%[!:90@*~$=!a-~=!{*&%#)&~=@@& ) #%@&",
"%^','!!b^!c![>{!!*==@%@!d!)~=!!e!!@@&(f!-~~g!!!@&)>==%&~%)#&+#*>",
"*;)^7!!h!!;!% (!_~$!$$@!^!; ]!>i!!]=@~!!{-*j!!*%# @&@==-+&=*))&&",
"#.#'!!!k!l,!*~k!-m!!{=!!'!. !!%>!!-&#*!n~*~%%@%>>@~@=-]-#=$% >##",
"@^&@!!!!!%[!>{!!!!n_(~!! !8b!*&+!!& )!!=*@%~%%&> {(**$o_{$-=&#%@",
") **!b!!k@6!)=!!!*~]]!!!+!!!6=#:l!-*&!@%@@]{=*&&*]_~o-4_$(~%@@*=",
"'>~*!@!!(&!!~{!jj_!!!!!i;,!!)$&.;!{=!!@=%o!!%* @{**~_]o54_{~=*@*",
",>=$!~!{(%b!@p!q!!!!$r!%;,^, $$,^!st!~&+&=!!@&&=]*#=$(4_4-%%&*#~",
">)@-{*-*@# )%p!!h)@@*uv*+w.'$o@,^ !!(*)'%#x5)#$@-%=~*-|(]$=&%~@_",
">+ &=-**#@&>+'+&#'  &=>)#'#)*o_&.)fm$@&+#>) #*$%~%*=@]o-o($)) =&",
")++'&%~@@%*''>'% ))+   ,;#@)>*#*+>-|$-~ )$]-~={@*@ #%%*%_o$&## =",
"'+'+&%#%%*@+ - @=) #@>,',^#>,'+* >*{~-(*-o$=%~$=%>  >)~@o|{$ - %",
")+,>#> *@=@>'')-(+)># +,,^+&&>)&)#%-${]-{-]-%=-=&)##,~_==|(->*# ",
" ))%#) &=# '..)*-%@)>'>^.^>&&%>)+)%]-o=~-%@@%*~{*>+)+>4@*_|]#%  ",
" )> '&) !! >.'+*~@+!++>!,'>  @%>#)&--{$@&  + #@-@)#>#-{-y(o-&+  ",
"+,,!!^#&z!!&)>^)&^!!!#!!+>)p-**))> *#]=AB%=&!!&%  > )*|(*#4$~,'%",
":'!!!!#!!q!@#:.+%l!!&!C!#*%!!]&+tx &+)@DB%{p!!@%!+ #%~o~#=]%+;.>",
".!!,![!!En! +,)+&!!!!!!!&~!!F!+)tt>&#)!!)_|!!!&>!!.#!(g~-~-='wi)",
";,.;!'!!)!!#'>  %!d!!l!! p!@~!%6!>!!&>!8@]f!+!s >!G!!${$$-=~>&^)",
"+'i!!+!!8!#,).& !!<!!+!)#!h !!*!8&!!%6!%*j!!)!!''^!!@@&@-o* )'+>",
"))^!7'>!!!&&'',)! *!l<!,l!)#!6b!))!>{!b )H!!!!!,;'!!&={ {-)>*'ii",
"%'}w}.%-$$*@ i^&!**))!!;!!++! !!)!>)!!p!!!!!!!!+i!!!!@&>-{@+++,i",
"& ^'^+*_$*=~@.,=_-%',!!i!<l!,)!3!G,+!!!!!!@ >!!+G!#@!#=#*_@>.+^w",
".)',) %{]=@*~),)-@,,^')'!!!i,,!!'^;!!@=%!!#++!!'G!)-]%~)=~& ',e:",
"'& )#&#&@&@%~ ''@# =+.iw;!.;.>..^>^.+#&%@*) &  ) > $@##' *) ieew",
"' )^,   +) )&#,)$* @#>::;') .:w;)%', #*{-->=~&)%#%-@I&&)>+',;}J}",
"+&%!!!)~~x!! #+,%-&@%&'^:^',.'++,#)+,)&~]{%-{*#=%{_|$~%#,,:^i,:w",
" =$=&!!@{!!![g0!!GK=)>~&+ %)^^+','> >>#~]]${*@)>)#(({~@&&+;.;,:;",
"@_]*~)!=f!>8!g!!!!!!{>!<^!% ++^!8!8!!8!#%@=_{~)  &{L%& *%,...'i;",
"=_$%&)!@!!' !@+/M!G@=[!<%!>b!'[!p!@!!!! >)%%~%+ )+@~{%*&=,..+)::",
"*~-&!<! !!)>! >++[!$@!!<6!+!!+!!!!$!*&&>:'&&& ) ,+ @& &*@ ^,,&::",
")$-!!!< !!>!!')&>&!p!!!/G!>!!&!!!&!!$!!^>'~>+)+%+#* %*==*#>'' +,",
")-%!!!!!!!+!/;>)&@!B!)!Gl!8!@!!!!*!!!!p +&@%+*@@%~~# @=%#&>)^> ,",
"~@=!<)[#[!!'>+) @b!NO%![^!!+#!p! %!b{f%%=&##&% &**@) #*>#*)))' +",
"{={%>##&>'< & #>!!p%=& )^)!>%#*!-!!!!!%@$~=-*%)) @# %#% ={~)>#) ",
"(%=#@=#+'+ # >#'!!%=~)+'^.,+')@o~v!!!*#=$-%%~= +, #%**5${$$&  #>",
"#)%#@)>##    ++>' %==*^.};'+')>~$%### ) %%,'@&>'i& ~%57{&%~%)#~ ",
"+#=&&#' [ @))''))&&!b&)^,++++  _~%#)&@+&->^.#Pa^^),&&(&#%%* )*@&",
", !!!!++!!!@>>>>>>#!!!!>>!!++%%~%G!!! 0Q$![!R!!!!',!%>)+&)&+ *& ",
"%-!~[< &!)!!#.'))&%@;,!<&b!^!k&@*6!8!@0gp!>!!!!![!!!!+d+!#))#>@#",
"~(!!!+&!!>&!8;^+&),#!! +> !!)=&~%&!,>6!)!!>>#!!&k!!>!n!!!%%%#'%@",
"{$!!!!)![, !!' )&+'>!! '')!!%#+%& !!.[!'!!>>+l!@!!!!!P!s~==%*&*~",
"$-^)S!&!! >!#)*,>!!'##!l>!!!s)>+ @!5+!!,!!!!>8!&!&!!~(!T!*$-{~-_",
"]%^!!~]@!!!!)#],'!!!!!!##!s!! >.>&!)>!!)!!6b&&! !#*!*%!!p@{(_{-(",
"@@!! #%# >#&##&++>>/+&)##@~-!#&>)  &) +'%%*~~@#*%=$!8#!3  *{(_(o",
" %l.'%&   * *,,,+'>''*@# @&#~-=&&& #=>+>$~~==&&= &%&>=<! >#=](]o",
") ,>>   ##&+)i+^+)''  ={*@=${*{%%#) =@)>${~=%#) ++]o&@$)>))=___{",
">'')%  >%& ,,;'')#+>~${@{{$$~*%&%#++ =#@=(==*#+>>,~@=({#> '={{(=",
"&,+%)#*&%),iii,+ i, {@]!$(o_-~%#>>)>#-~@%_@~&),))+# ]o&#' )*~{~%",
")+G!!*)4Ut73G.'++;. &@!!!_VM$* ',)))xr@&%~ @#>)&@*#@==&>>>  &=&%",
"> $<n!)4W!!!!+X!!# %#*!*!{!!%*# <!)>!!'+#@%#')&~~@#)@##+)+)')&&%",
"%% -=!>>!!#>'b!4!!&&&!!@!f!k# *&S!>^!!,/)#,++&===%*& )),>,..)#%@",
"~@@&6!#,!!!,+!b>!!# =!!!!m!-), )!!+^!!!!)@^,)#%#%@@))>=,''>'>)#@",
"--*#!! &&'!![!+)!>#&6!5!!p!#'i'>!!!)!!G+,'i^ ##) -@## )>+>#)#')#",
"%#!!!!@%)+!!!![!%>>*p!Bg&!![/!)!!!!+!!Gi'+.>##)> @ @*% )&)# %^+,",
">'l!!!&~>!!Y.!!!#)+^5v%> !!!!!/!>[!>!G!3').)  &@@=*$$*)=*  ++)'>",
"@)^&*&%%+!i,:,&&%>,'uO+)>+ >>%*c>[!'!G.!!;;'))#$*@*-]-@~{ >+'>)>",
"~%^++ ##++i;', *=>'++>#&&@ #&&# +>^;eZ;^:.:; >@{%&*(_]$*-%++>+>>",
">)>,,)%)>),^,^'*%>> %]$==%~=%==#>&+,www:};..)&#@ %%~]-o]~@#,')>>",
"; %+ &%%@)'>')^&@)*@$(~~*==@&&&))+>,ii;:::i^>@&>#) )&{(-*@);.'#>"};
