/* XPM */
static char * in_wall_xpm[] = {
"64 64 42 1",
" 	c #C5C5C5",
".	c #CCCCCC",
"+	c #C8C8C8",
"@	c #C1C1C1",
"#	c #C4C4C4",
"$	c #BCBCBC",
"%	c #C2C2C2",
"&	c #C3C3C3",
"*	c #C0C0C0",
"=	c #BFBFBF",
"-	c #BDBDBD",
";	c #CDCDCD",
">	c #C7C7C7",
",	c #CACACA",
"'	c #C9C9C9",
")	c #C6C6C6",
"!	c #BEBEBE",
"~	c #BBBBBB",
"{	c #BABABA",
"]	c #CBCBCB",
"^	c #B8B8B8",
"/	c #B9B9B9",
"(	c #CFCFCF",
"_	c #D0D0D0",
":	c #B6B6B6",
"<	c #D1D1D1",
"[	c #B5B5B5",
"}	c #B4B4B4",
"|	c #CECECE",
"1	c #D2D2D2",
"2	c #D3D3D3",
"3	c #B7B7B7",
"4	c #B0B0B0",
"5	c #B3B3B3",
"6	c #B1B1B1",
"7	c #B2B2B2",
"8	c #A9A9A9",
"9	c #ABABAB",
"0	c #AFAFAF",
"a	c #D4D4D4",
"b	c #ACACAC",
"c	c #A7A7A7",
"  .+@ #@@$%&&%*=-+#;.@&>  ,+',)$-$!*@--~%-${!-~!&@-!=@-# ',''.;#",
",);.&)= ']%&>+)!@% ++>++')>,'',&@=*-=$-*&%%^/~-{$=/~$$@#';]' >,)",
"(+>']@~@](] ,#&@*)++''+'>)#>' , )%@*%-!!@&%~{$=~-!~=!/! >]>'#@' ",
"&+,,])#%)_;>)$:^%)#),> >>#%%++.;> %!@{*=!)@--!=!=@&==!! { +  *)%",
"=)]>+]>%+<_+>#[}$& )>*% +##-%);('>@*!$=*{-!=~~*&%#)&!=@@& ) #%@&",
"%]','+&&]_|#)>~:/*==@%@  ')!=)+1.)@@&^~/-!!@{/!@&)>==%&!%)#&+#*>",
"*;)]<,&#).;#% ^~/!$$$$@+];; {)>|;){=@!/{~-*-$~*%# @&@==-+&=*))&&",
"#.#'2,@=&',&*!=~-:{{~==&',. @%%>'&-&#*{-!*!%%@%>>@!@=-{-#=$% >##",
"@]&@ &~!=%))>~!-$[-/^!%# ' &=*&++!& )*$=*@%!%%&> ~^**$3/~$-=&#%@",
") **@&$-=@% )=~!-*!{{! '+,'>%=#('#-*&$@%@@{~=*&&*{/!3-[/$^!%@@*=",
"'>!*=@%%^& *!~^$$/$*!=%|;,]')$&.;@~=~$@=%34}%* @~**!/{35[/~!=*@*",
",>=$~!$~^%&&@@~~=-$*$%=%;,], $$,] !}:!&+&=*&@&&={*#=$^[/[-%%&*#!",
">)@-~*-*@# )%@-!#)@@** *+<.'$3@,] ^^^*)'%#> )#$@-%=!*-:^{$=&%!@/",
">+ &=-**#@&>+'+&#'  &=>)#'#)*3/&.)~3$@&+#>) #*$%!%*=@{3-3^$)) =&",
")++'&%!@@%*''>'% ))+   ,;#@)>*#*+>-:$-! )${-!=~@*@ #%%*%/3$&## =",
"'+'+&%#%%*@+ - @=) #@>,',]#>,'+* >*~!-^*-3$=%!$=%>  >)!@3:~$ - %",
")+,>#> *@=@>'')-^+)># +,,]+&&>)&)#%-$~{-~-{-%=-=&)##,!/==:^->*# ",
" ))%#) &=# '..)*-%@)>'>].]>&&%>)+)%{-3=!-%@@%*!~*>+)+>[@*/:{#%  ",
" )> '&) @> >.'+*!@+,++>,,'>  @%>#)&--~$@&  + #@-@)#>#-~-}^3-&+  ",
"+,,, ]#&* @&)>])&]'))#''+>)*-**))> *#{=@#%=&) &%  > )*:^*#[$!,'%",
"(',+,>#*6$*@#(.+%'.&&@>>#*%/}{&+ ) &+)@/#%~@ )@%'+ #%!3!#={%+;.>",
".|.,>>&78-  +,)+&+> =+++&!=39^+)  >&#)#!)/:!>#&>.,.#!^0!-!-='<|)",
";,.;.' -)) #'>  %& ##'># @#@!$%% >,)&># @{$&+%! >..&$$~$$-=!>&])",
"+'|.]+#) +#,).& )@+],+.)#%# :-*@ &#)%%%%*~ #)@#''] *@@&@-3* )'+>",
"))]|<'>+&>&&'',)& *,'+],'))#*%&>))'>~*& )*#> &#,;'@@&=~ ~-)>*'||",
"%'_<_.%-$$*@ |]&-**))> ;>]++   ,)'>)*%@&& ) )  +|& )#@&>-~@+++,|",
"& ]']+*/$*=!@.,=/-%',]<|;+',,)];+],+ %=#)>@ > >+.,#@%#=#*/@>.+]<",
".)',) %~{=@*!),)-@,,]')'.+]|,,,;'];++@=%&&#++))'..)-{%!)=!& ',1(",
"'& )#&#&@&@%! ''@# =+.|<;>.;.>..]>].+#&%@*) &  ) > $@##' *) |11<",
"' )],   +) )&#,)$* @#>((;') .(<;)%', #*~-->=!&)%#%-@6&&)>+',;_a_",
"+&%#>&)!!))> #+,%-&@%&'](]',.'++,#)+,)&!{~%-~*#=%~/:$!%#,,(]|,(<",
" =$=&)+@~) )>@+]']%=)>!&+ %)]]+','> >>#!{{$~*@)>)#^^~!@&&+;.;,(;",
"@/{*!) =$ > '@ .;; -~>#+] % ++]  # #  ##%@=/~!)  &~b%& *%,...'|;",
"=/$%&)>@  '  @+,.,.@=)>+%)>& '> @#@%%&@ >)%%!%+ )+@!~%*&=,..+)((",
"*!-&'+' )))>) >++)@$@&>+%,+.,+&=*=$$*&&>('&&& ) ,+ @& &*@ ],,&((",
")$-!%>+ #'>'>')&>&-@&&+,])>+#&**%&$/$@&]>'!>+)+%+#* %*==*#>'' +,",
")-%#@&)+';+',;>)&@$#%)+.'> *@%**%*-/$** +&@%+*@@%!!# @=%#&>)]> ,",
"!@=-+))#)],'>+) @&-~&% >]+'+##*! %&-~$%%=&##&% &**@) #*>#*)))' +",
"~=~%>##&>'+ & #>#**%=& )])'>%#*--&)#%!%@$!=-*%)) @# %#% =~!)>#) ",
"^%=#@=#+'+ # >#'+%%=!)+'].,+')@3!)))%*#=$-%%!= +, #%**5$~$$&  #>",
"#)%#@)>##    ++>' %==*]._;'+')>!$%### ) %%,'@&>'|& !%5c~&%!%)#! ",
"+#=&&#' ) @))''))&&>&&)],++++  /!%#)&@+&->].#']]]),&&^&#%%* )*@&",
", --&'++'+%@>>>>>>#+ &#>> >++%%!% &)# >~$>>]@.(|)', %>)+&)&+ *& ",
"%-$!>+ &')%*#.'))&%@;,>+&&.]+=&@*))  @>@*)>>&;(+>>>#)+ +@#))#>@#",
"!^) ]+&&+>&* ;]+&),#+& +> >+)=&!%&>,>%))))>>#],&=#&>@-$$*%%%#'%@",
"~$+,,')&), ##' )&+'>#% '')+)%#+%& &,.>)', >>+' @*%=*~^-!!==%*&*!",
"$-]))@&%# > #)*,> ''##+'> &=!)>+ @  ++>,>>>&> #&@&*$!^{=**$-~!-/",
"{%]>%!{@ +>#)#{,'>>+ #%##&!$- >.>&))> )) *%&&&) ##*~*%*&@@~^/~-^",
"@@,, #%# >#&##&++>>,+&)##@!-$#&>)  &) +'%%*!!@#*%=$* #>)  *~^/^3",
" %'.'%&   * *,,,+'>''*@# @&#!-=&&& #=>+>$!!==&&= &%&>=@> >#={^{3",
") ,>>   ##&+)|+]+)''  =~*@=$~*~%%#) =@)>$~!=%#) ++{3&@$)>))=///~",
">'')%  >%& ,,;'')#+>!$~@~~$$!*%&%#++ =#@=^==*#+>>,!@=^~#> '=~~^=",
"&,+%)#*&%),|||,+ |, ~@{7$^3/-!%#>>)>#-!@%/@!&),))+# {3&#' )*!~!%",
")+ @@*)+%)<;..'++;. &@*$=/:/$* ',))))@@&%! @#>)&@*#@==&>>>  &=&%",
"> *@-*)> .+;,+]>)# %#****~-*%*# + )># '+#@%#')&!!@#)@##+)+)')&&%",
"%% -=->>)+#>'& +&%&&&%@@%$$=# *&)]>]+>,,)#,++&===%*& )),>,..)#%@",
"!@@&%^#,&+>,++&>&*# =**=*3{-), )#'+]'+',)@],)#%#%@@))>=,''>'>)#@",
"--*#{3 &&'<;> +)@>#&%@57!*!#'|'> >>)#|]+,'|] ##) -@## )>+>#)#')#",
"%# )^!@%)+.'&)>#%>>*@}70&&%),]))>) +,'.|'+.>##)> @ @*% )&)# %]+,",
">'' {~&!>'_(.& &#)+]  %> )@#,&# >))>].|;').)  &@@=*$$*)=*  ++)'>",
"@)]&*&%%+>|,(,&&%>,'*#+)>+ >>%#>>>+'|].]|;;'))#$*@*-{-@!~ >+'>)>",
"!%]++ ##++|;', *=>'++>#&&@ #&&# +>];12;](.(; >@~%&*^/{$*-%++>+>>",
">)>,,)%)>),],]'*%>> %{$==%!=%==#>&+,<<<(_;..)&#@ %%!{-3{!@#,')>>",
"; %+ &%%@)'>')]&@)*@$^!!*==@&&&))+>,||;(((|]>@&>#) )&~^-*@);.'#>"};
